/vscmnt/brussel_pixiu_data/_data_brussel/112/vsc11236/PredSimResults/SUBJ11opt3D/weighted-LRposFixed/trackIG/worker_05.mot
version=1
nRows=7
nColumns=50
inDegrees=yes
endheader
                time	         pelvis_tilt	         pelvis_list	     pelvis_rotation	           pelvis_tx	           pelvis_ty	           pelvis_tz	       hip_flexion_r	     hip_adduction_r	      hip_rotation_r	        knee_angle_r	       ankle_angle_r	         mtp_angle_r	       hip_flexion_l	     hip_adduction_l	      hip_rotation_l	        knee_angle_l	       ankle_angle_l	         mtp_angle_l	    lumbar_extension	      lumbar_bending	     lumbar_rotation	 ercspn_r/activation	 intobl_r/activation	 extobl_r/activation	    abd_r/activation	    add_r/activation	hamstrings_r/activation	bifemsh_r/activation	glut_max_r/activation	iliopsoas_r/activation	rect_fem_r/activation	  vasti_r/activation	gastroc_r/activation	 soleus_r/activation	tib_ant_r/activation	 ercspn_l/activation	 intobl_l/activation	 extobl_l/activation	    abd_l/activation	    add_l/activation	hamstrings_l/activation	bifemsh_l/activation	glut_max_l/activation	iliopsoas_l/activation	rect_fem_l/activation	  vasti_l/activation	gastroc_l/activation	 soleus_l/activation	tib_ant_l/activation	
          0.73001867	         -2.10842318	          1.50427438	         -6.90846201	          0.70811811	          0.94412147	          0.00424019	        -13.15120834	         -3.29166469	          0.57450317	        -12.60615991	         13.72889084	         28.53756572	         29.51025632	         -0.91948382	         -2.75351994	         -9.34650864	          1.23266086	          0.24722720	        -13.99997693	          2.86458802	          3.51781561	          0.00999999	          0.00999999	          0.00999999	          0.04593332	          0.00999999	          0.01929741	          0.29610140	          0.03583428	          0.19999831	          0.00999999	          0.00999999	          0.16568277	          0.35255589	          0.01387727	          0.02506208	          0.25466719	          0.06873002	          0.00999999	          0.25022301	          0.03035120	          0.10831955	          0.05157363	          0.10677562	          0.04214086	          0.02269815	          0.00999999	          0.00999999	          0.39805530	
          0.74461904	         -2.29140966	          1.63772993	         -6.93499182	          0.72667644	          0.94177345	          0.00267967	        -13.60113378	         -3.62080488	          0.08659621	        -13.45679989	         13.08730524	         30.36420288	         29.35769953	         -0.59093416	         -2.86568088	        -10.59097379	          0.77852061	          0.20428545	        -13.46563999	          2.24665941	          3.75847174	          0.00999999	          0.00999999	          0.00999999	          0.03694350	          0.01832369	          0.03851420	          0.26181089	          0.02882100	          0.16085575	          0.00999999	          0.00999999	          0.14079605	          0.33358557	          0.01116129	          0.02015707	          0.23910591	          0.05527856	          0.00999999	          0.20125075	          0.04500769	          0.08711984	          0.06928169	          0.08587809	          0.03389329	          0.01825579	          0.01243338	          0.01243338	          0.43085939	
          0.75921941	         -2.45218453	          1.80279587	         -6.93560568	          0.74563299	          0.93977575	          0.00104310	        -13.91086805	         -3.98945981	         -0.41741788	        -14.60827616	         12.26633275	         32.30171835	         29.12256149	         -0.24365491	         -2.98889154	        -11.77888512	          0.19439725	          0.19897166	        -12.89712922	          1.58274420	          3.99565641	          0.01693332	          0.00999999	          0.00999999	          0.02971312	          0.01473748	          0.04624081	          0.22095771	          0.02318031	          0.12937395	          0.00999999	          0.00999999	          0.11324022	          0.30822348	          0.00999999	          0.01621204	          0.19230942	          0.04445974	          0.02186851	          0.18289230	          0.05482646	          0.07006923	          0.10291407	          0.06907050	          0.02725988	          0.01468287	          0.00999999	          0.00999999	          0.49006375	
          0.77381979	         -2.59190759	          1.97930128	         -6.90155759	          0.76467261	          0.93830074	         -0.00068633	        -14.00317589	         -4.37451909	         -0.94505208	        -16.15066610	         11.22231755	         34.35027066	         28.92058743	          0.10139038	         -3.23396238	        -13.01421391	         -0.55730413	          0.16721680	        -12.33310572	          0.90054920	          4.22136191	          0.03221297	          0.00999999	          0.00999999	          0.02389784	          0.04149110	          0.05662648	          0.18013998	          0.01864359	          0.10405359	          0.00999999	          0.00999999	          0.09107747	          0.27797620	          0.00999999	          0.01769668	          0.15467169	          0.03575833	          0.04402828	          0.21460893	          0.06316156	          0.05635567	          0.08751151	          0.05555240	          0.02192473	          0.09638110	          0.00999999	          0.00999999	          0.55266664	
          0.78842016	         -2.71084412	          2.15293031	         -6.83265965	          0.78363646	          0.93748399	         -0.00248974	        -13.82391279	         -4.76235360	         -1.49694860	        -18.14830153	          9.91263641	         36.47469846	         28.73015598	          0.43055201	         -3.57590032	        -14.31794271	         -1.11736404	          0.11649436	        -11.79013263	          0.21937512	          4.43074670	          0.05166226	          0.00999999	          0.00999999	          0.01922068	          0.09687732	          0.06860640	          0.14488399	          0.01499477	          0.08368880	          0.00999999	          0.00999999	          0.07325229	          0.23327381	          0.00999999	          0.01979650	          0.12440020	          0.02875991	          0.06885756	          0.23384342	          0.06842018	          0.04532605	          0.09974829	          0.04467999	          0.01763374	          0.17478158	          0.00999999	          0.00999999	          0.57797859	
          0.80302053	         -2.81131056	          2.31483087	         -6.72749148	          0.80229897	          0.93750257	         -0.00433082	        -13.30428447	         -5.14498027	         -2.07180746	        -20.67899779	          8.32134931	         38.52639690	         28.50542684	          0.74493601	         -3.95511910	        -15.64677408	         -1.20628869	          0.06481199	        -11.29050160	         -0.45167979	          4.61700808	          0.06418009	          0.00999999	          0.00999999	          0.01545892	          0.15502386	          0.08417851	          0.11652810	          0.01206007	          0.06730969	          0.00999999	          0.00999999	          0.05891576	          0.18761875	          0.00999999	          0.01713080	          0.10005328	          0.02313118	          0.08189029	          0.25008938	          0.07337748	          0.03645509	          0.11576035	          0.03593547	          0.01418256	          0.21860063	          0.00999999	          0.00999999	          0.55100751	
          0.81762091	         -2.89532512	          2.45473582	         -6.58598522	          0.82044720	          0.93843231	         -0.00617147	        -12.39392067	         -5.51587502	         -2.66182996	        -23.79391411	          6.49602886	         40.20062011	         28.20170198	          1.04977309	         -4.29061343	        -16.90999293	         -0.77642002	          0.06241131	        -10.85539013	         -1.10381064	          4.77510525	          0.07091017	          0.00999999	          0.00999999	          0.01243338	          0.22121812	          0.09766796	          0.10473280	          0.00999999	          0.05413621	          0.00999999	          0.00999999	          0.04738509	          0.15089904	          0.00999999	          0.01377806	          0.08047140	          0.01860407	          0.08985388	          0.25794573	          0.07624614	          0.02932030	          0.12498989	          0.02890238	          0.01140683	          0.27319323	          0.00999999	          0.00999999	          0.46813517	
